<?xml version="1.0" standalone="no"?>
<!DOCTYPE svg PUBLIC "-//W3C//DTD SVG 20010904//EN"
 "http://www.w3.org/TR/2001/REC-SVG-20010904/DTD/svg10.dtd">
<svg version="1.0" xmlns="http://www.w3.org/2000/svg"
 width="512.000000pt" height="512.000000pt" viewBox="0 0 512.000000 512.000000"
 preserveAspectRatio="xMidYMid meet">

<g transform="translate(0.000000,512.000000) scale(0.100000,-0.100000)"
fill="#ff0000" stroke="none">
<path d="M250 4228 c-18 -13 -43 -36 -54 -51 l-21 -28 -3 -1250 c-2 -1115 -4
-1249 -18 -1249 -29 0 -71 -29 -83 -58 -9 -20 -11 -76 -9 -172 3 -141 3 -142
31 -166 l28 -24 279 0 279 0 33 -62 c67 -129 213 -245 358 -283 71 -19 219
-19 290 0 145 38 291 154 358 283 l33 62 804 0 805 0 31 -62 c20 -40 58 -89
103 -133 117 -116 237 -165 404 -165 211 0 393 109 498 296 l36 64 283 0 284
0 28 24 c28 24 28 25 31 166 2 96 0 152 -9 172 -12 29 -54 58 -83 58 -13 0
-16 56 -18 443 -4 564 19 509 -274 661 l-178 92 -158 400 c-86 219 -157 402
-158 406 0 4 152 8 338 10 303 3 341 5 365 21 56 37 62 56 65 241 5 219 0 251
-45 293 l-34 33 -2293 0 -2293 0 -33 -22z m4588 -80 c17 -17 17 -359 0 -376
-9 -9 -532 -12 -2290 -12 l-2278 0 0 179 0 180 26 20 27 21 2251 0 c1738 0
2255 -3 2264 -12z m-1518 -927 l0 -440 22 -15 c20 -14 91 -16 574 -16 l552 0
164 -85 c90 -46 175 -96 189 -111 21 -22 24 -37 28 -110 l3 -84 -127 0 c-69 0
-135 -5 -146 -10 -18 -10 -19 -24 -19 -258 0 -180 3 -251 12 -260 8 -8 55 -12
145 -12 l133 0 0 -85 0 -85 -213 0 -213 0 -18 40 c-27 62 -100 153 -158 198
-120 91 -236 127 -388 119 -199 -10 -376 -122 -470 -298 l-31 -59 -175 0 -174
0 0 907 c0 829 -1 908 -17 925 -15 17 -42 18 -445 18 -277 0 -436 -4 -449 -10
-19 -10 -19 -31 -19 -925 l0 -915 -164 0 -165 0 -33 63 c-69 130 -222 247
-369 282 -248 58 -510 -57 -634 -278 l-37 -67 -204 0 -204 0 0 85 0 85 149 0
c123 0 152 3 165 16 14 13 16 64 16 398 0 284 -3 385 -12 394 -8 8 -59 12
-165 12 l-153 0 0 510 0 510 1525 0 1525 0 0 -439z m876 119 c68 -173 139
-354 158 -402 l35 -88 -485 0 -484 0 0 405 0 405 326 -2 326 -3 124 -315z
m-1286 -815 l0 -875 -370 0 -370 0 0 875 0 875 370 0 370 0 0 -875z m-2410
-55 l0 -81 -112 3 -113 3 -3 64 c-2 35 -1 70 2 77 4 11 32 14 116 14 l110 0 0
-80z m0 -360 l0 -190 -115 0 -115 0 0 190 0 190 115 0 115 0 0 -190z m4350
-20 l0 -170 -100 0 -100 0 0 170 0 170 100 0 100 0 0 -170z m-3437 -222 c209
-100 318 -326 262 -543 -62 -236 -293 -392 -529 -355 -187 29 -342 170 -391
355 -63 242 80 489 330 571 25 9 78 13 145 11 98 -2 110 -5 183 -39z m2681 -1
c240 -114 341 -397 226 -634 -146 -299 -541 -361 -768 -119 -92 98 -131 197
-132 326 0 201 126 377 319 447 57 20 81 23 171 21 98 -3 111 -6 184 -41z
m-3449 -432 l1 -115 -243 0 -243 0 0 115 0 115 243 0 242 0 0 -115z m2680 0
l0 -115 -770 0 -771 0 1 115 0 115 770 0 770 0 0 -115z m1635 5 l0 -110 -248
0 -248 0 -1 110 0 110 248 0 249 0 0 -110z"/>
<path d="M520 3480 c-19 -19 -20 -33 -20 -355 0 -322 1 -336 20 -355 20 -20
33 -20 590 -20 557 0 570 0 590 20 19 19 20 33 20 355 0 322 -1 336 -20 355
-20 20 -33 20 -590 20 -557 0 -570 0 -590 -20z m1100 -355 l0 -275 -510 0
-510 0 0 275 0 275 510 0 510 0 0 -275z"/>
<path d="M1173 1669 c-59 -11 -96 -32 -137 -81 -101 -118 -61 -295 83 -365 49
-23 144 -23 194 1 142 70 182 247 81 364 -57 68 -135 96 -221 81z m90 -103
c53 -22 87 -70 87 -123 0 -142 -177 -196 -251 -76 -43 69 -12 164 66 199 39
17 58 17 98 0z"/>
<path d="M3855 1670 c-156 -23 -241 -194 -169 -339 32 -63 84 -104 154 -121
185 -44 347 149 269 320 -47 104 -142 156 -254 140z m112 -115 c90 -59 80
-189 -19 -241 -86 -45 -188 23 -188 124 0 57 25 97 75 123 45 22 91 20 132 -6z"/>
</g>
</svg>
